<svg width="512" height="512" viewBox="0 0 1024 1024" fill="none" xmlns="http://www.w3.org/2000/svg">
  <defs>
    <linearGradient id="reproute-bg" x1="132" y1="112" x2="884" y2="940" gradientUnits="userSpaceOnUse">
      <stop offset="0" stop-color="#0C2D66" />
      <stop offset="0.52" stop-color="#16519A" />
      <stop offset="1" stop-color="#15C8B2" />
    </linearGradient>
    <radialGradient id="reproute-sheen" cx="0" cy="0" r="1" gradientUnits="userSpaceOnUse" gradientTransform="translate(274 220) rotate(36) scale(432 368)">
      <stop stop-color="white" stop-opacity="0.28" />
      <stop offset="1" stop-color="white" stop-opacity="0" />
    </radialGradient>
    <filter id="reproute-mark-shadow" x="182" y="132" width="660" height="760" filterUnits="userSpaceOnUse" color-interpolation-filters="sRGB">
      <feFlood flood-opacity="0" result="BackgroundImageFix"/>
      <feColorMatrix in="SourceAlpha" type="matrix" values="0 0 0 0 0 0 0 0 0 0 0 0 0 0 0 0 0 0 127 0" result="hardAlpha"/>
      <feOffset dy="24"/>
      <feGaussianBlur stdDeviation="28"/>
      <feColorMatrix type="matrix" values="0 0 0 0 0.0196078 0 0 0 0 0.0941176 0 0 0 0 0.203922 0 0 0 0.24 0"/>
      <feBlend mode="normal" in2="BackgroundImageFix" result="effect1_dropShadow_0_1"/>
      <feBlend mode="normal" in="SourceGraphic" in2="effect1_dropShadow_0_1" result="shape"/>
    </filter>
  </defs>

  <rect x="56" y="56" width="912" height="912" rx="224" fill="url(#reproute-bg)"/>
  <rect x="56" y="56" width="912" height="912" rx="224" fill="url(#reproute-sheen)"/>
  <rect x="60" y="60" width="904" height="904" rx="220" stroke="#FFFFFF" stroke-opacity="0.08" stroke-width="8"/>

  <g filter="url(#reproute-mark-shadow)" stroke="#F8FCFF" stroke-width="104" stroke-linecap="round" stroke-linejoin="round">
    <path d="M334 228V796" />
    <path d="M334 228H554C658 228 734 302 734 398C734 494 658 568 554 568H456" />
    <path d="M456 568L726 796" />
  </g>

  <circle cx="334" cy="228" r="46" fill="#F8FCFF"/>
  <circle cx="734" cy="398" r="42" fill="#F8FCFF"/>
  <circle cx="726" cy="796" r="46" fill="#F8FCFF"/>
</svg>